<svg width="32" height="32" viewBox="0 0 32 32" fill="none" xmlns="http://www.w3.org/2000/svg">
<path d="M26.5335 16.8799C26.3198 16.6366 26.2019 16.3238 26.2019 15.9999C26.2019 15.6761 26.3198 15.3633 26.5335 15.1199L28.2402 13.1999C28.4283 12.9902 28.545 12.7262 28.5738 12.446C28.6025 12.1657 28.5418 11.8835 28.4002 11.6399L25.7335 7.02661C25.5934 6.7833 25.38 6.59044 25.1239 6.47552C24.8677 6.3606 24.5818 6.32949 24.3069 6.38661L21.8002 6.89328C21.4812 6.95918 21.1492 6.90606 20.8667 6.74394C20.5842 6.58182 20.3709 6.32192 20.2669 6.01328L19.4535 3.57327C19.3641 3.30845 19.1937 3.07843 18.9664 2.91573C18.7391 2.75303 18.4664 2.66589 18.1869 2.66661H12.8535C12.5628 2.65143 12.275 2.73184 12.0343 2.89556C11.7935 3.05928 11.613 3.2973 11.5202 3.57327L10.7735 6.01328C10.6695 6.32192 10.4562 6.58182 10.1737 6.74394C9.89119 6.90606 9.55914 6.95918 9.24019 6.89328L6.66685 6.38661C6.40626 6.34978 6.14059 6.3909 5.90332 6.50479C5.66605 6.61868 5.46779 6.80025 5.33352 7.02661L2.66685 11.6399C2.52173 11.8808 2.45648 12.1614 2.48043 12.4416C2.50438 12.7218 2.6163 12.9872 2.80019 13.1999L4.49352 15.1199C4.70728 15.3633 4.82517 15.6761 4.82517 15.9999C4.82517 16.3238 4.70728 16.6366 4.49352 16.8799L2.80019 18.7999C2.6163 19.0127 2.50438 19.2781 2.48043 19.5583C2.45648 19.8385 2.52173 20.1191 2.66685 20.3599L5.33352 24.9733C5.47365 25.2166 5.68701 25.4094 5.94319 25.5244C6.19937 25.6393 6.48529 25.6704 6.76019 25.6133L9.26685 25.1066C9.58581 25.0407 9.91786 25.0938 10.2003 25.2559C10.4828 25.4181 10.6962 25.678 10.8002 25.9866L11.6135 28.4266C11.7063 28.7026 11.8868 28.9406 12.1276 29.1043C12.3684 29.268 12.6561 29.3485 12.9469 29.3333H18.2802C18.5597 29.334 18.8324 29.2469 19.0597 29.0842C19.287 28.9215 19.4574 28.6914 19.5469 28.4266L20.3602 25.9866C20.4642 25.678 20.6776 25.4181 20.96 25.2559C21.2425 25.0938 21.5746 25.0407 21.8935 25.1066L24.4002 25.6133C24.6751 25.6704 24.961 25.6393 25.2172 25.5244C25.4734 25.4094 25.6867 25.2166 25.8269 24.9733L28.4935 20.3599C28.6351 20.1164 28.6959 19.8342 28.6671 19.5539C28.6384 19.2737 28.5216 19.0097 28.3335 18.7999L26.5335 16.8799ZM24.5469 18.6666L25.6135 19.8666L23.9069 22.8266L22.3335 22.5066C21.3732 22.3103 20.3743 22.4734 19.5263 22.965C18.6783 23.4566 18.0404 24.2424 17.7335 25.1733L17.2269 26.6666H13.8135L13.3335 25.1466C13.0267 24.2157 12.3887 23.4299 11.5407 22.9383C10.6928 22.4468 9.69382 22.2836 8.73352 22.4799L7.16019 22.7999L5.42685 19.8533L6.49352 18.6533C7.14946 17.9199 7.5121 16.9705 7.5121 15.9866C7.5121 15.0027 7.14946 14.0533 6.49352 13.3199L5.42685 12.1199L7.13352 9.18661L8.70685 9.50661C9.66715 9.7029 10.6661 9.53978 11.5141 9.04821C12.362 8.55663 13 7.77082 13.3069 6.83994L13.8135 5.33327H17.2269L17.7335 6.85327C18.0404 7.78415 18.6783 8.56996 19.5263 9.06154C20.3743 9.55312 21.3732 9.71624 22.3335 9.51994L23.9069 9.19994L25.6135 12.1599L24.5469 13.3599C23.8983 14.0916 23.5401 15.0355 23.5401 16.0133C23.5401 16.991 23.8983 17.9349 24.5469 18.6666ZM15.5202 10.6666C14.4654 10.6666 13.4342 10.9794 12.5571 11.5654C11.6801 12.1515 10.9965 12.9844 10.5928 13.959C10.1892 14.9335 10.0835 16.0059 10.2893 17.0404C10.4951 18.075 11.0031 19.0253 11.749 19.7712C12.4948 20.5171 13.4451 21.025 14.4797 21.2308C15.5143 21.4366 16.5866 21.331 17.5612 20.9273C18.5357 20.5236 19.3687 19.84 19.9547 18.963C20.5407 18.0859 20.8535 17.0548 20.8535 15.9999C20.8535 14.5855 20.2916 13.2289 19.2914 12.2287C18.2912 11.2285 16.9347 10.6666 15.5202 10.6666ZM15.5202 18.6666C14.9928 18.6666 14.4772 18.5102 14.0387 18.2172C13.6001 17.9242 13.2583 17.5077 13.0565 17.0204C12.8547 16.5332 12.8019 15.997 12.9048 15.4797C13.0077 14.9624 13.2616 14.4873 13.6346 14.1143C14.0075 13.7414 14.4827 13.4874 14.9999 13.3845C15.5172 13.2816 16.0534 13.3344 16.5407 13.5363C17.0279 13.7381 17.4444 14.0799 17.7374 14.5184C18.0305 14.957 18.1869 15.4725 18.1869 15.9999C18.1869 16.7072 17.9059 17.3855 17.4058 17.8856C16.9057 18.3857 16.2274 18.6666 15.5202 18.6666Z" fill="#F8F8F8"/>
</svg>
